


[img]http://img17.imageshack.us/img17/3683/manonaledgenewposter.jpg[/img]
+Man on a Ledge 2012 CAM XviD - ILLUMINATI
 
http://www.imdb.com/title/tt1568338/

Sources - video: P76 Thanks 
     Audio: NoGRP Thanks 

Video
ID                               : 0
Format                           : MPEG-4 Visual
Format profile                   : Advanced Simple@L5
Format settings, BVOP            : 2
Format settings, QPel            : No
Format settings, GMC             : No warppoints
Format settings, Matrix          : Default (H.263)
Muxing mode                      : Packed bitstream
Codec ID                         : XVID
Codec ID/Hint                    : XviD
Duration                         : 1h 35mn
Bit rate                         : 1 954 Kbps
Width                            : 720 pixels
Height                           : 304 pixels
Display aspect ratio             : 2.35:1
Frame rate                       : 25.000 fps
Color space                      : YUV
Chroma subsampling               : 4:2:0
Bit depth                        : 8 bits
Scan type                        : Progressive
Compression mode                 : Lossy
Bits/(Pixel*Frame)               : 0.357
Stream size                      : 1.30 GiB (93%)
Writing library                  : XviD 64

Audio
ID                               : 1
Format                           : MPEG Audio
Format version                   : Version 1
Format profile                   : Layer 3
Mode                             : Joint stereo
Mode extension                   : MS Stereo
Codec ID                         : 55
Codec ID/Hint                    : MP3
Duration                         : 1h 35mn
Bit rate mode                    : Constant
Bit rate                         : 128 Kbps
Channel(s)                       : 2 channels
Sampling rate                    : 44.1 KHz
Compression mode                 : Lossy
Stream size                      : 87.1 MiB (6%)
Alignment                        : Split accross interleaves
Interleave, duration             : 40 ms (1.00 video frame)

Notes -
Video cut into 11 pieces, rotated and cropped 
to remove as much camera shifting as possible.
One minute missing around 30 minutes or so.

[img]http://img23.imageshack.us/img23/7745/1b1cm.png[/img]
[img]http://img210.imageshack.us/img210/4063/2mstw.png[/img]
[img]http://img6.imageshack.us/img6/4761/3uczx.png[/img]
[img]http://img641.imageshack.us/img641/9195/d0pnj.png[/img]
[img]http://img542.imageshack.us/img542/4201/igimp.png[/img]
[img]http://img21.imageshack.us/img21/79/lgpyt.png[/img]
[img]http://img46.imageshack.us/img46/8485/y59r8.png[/img]